<?xml version="1.0" encoding="utf-8"?>
<!-- Generator: Adobe Illustrator 23.0.5, SVG Export Plug-In . SVG Version: 6.00 Build 0)  -->
<svg version="1.1" id="Layer_1" xmlns="http://www.w3.org/2000/svg" xmlns:xlink="http://www.w3.org/1999/xlink" x="0px" y="0px"
	 viewBox="0 0 1026.7 1584.9" style="enable-background:new 0 0 1026.7 1584.9;" xml:space="preserve">
<style type="text/css">
	.st0{fill:#fff;}
</style>
<path class="st0" d="M846,1164.4c-18.1-26.3-34.5-50.1-50.9-74.7c-18.1-26.3-35.3-53.4-53.4-78.8c-2.5-4.1-12.3-7.4-15.6-5.7
	c-44.3,24.6-92.8,34.5-142,41c-54.2,7.4-108.3,11.5-163.3,14.8c-33.7,2.5-68.1,3.3-101.8,0.8c-41.9-3.3-82.1-15.6-117.4-39.4
	c-18.9-12.3-36.1-27.1-52.5-41.9c-17.2-16.4-12.3-42.7,11.5-45.1c28.7-3.3,52.5-21.3,82.9-22.2c36.9-0.8,73-12.3,110-18.1
	c14.8-2.5,29.5-0.8,44.3,0.8c29.5,2.5,59.1,5.7,88.6,8.2c29.5,2.5,59.9,4.9,89.5,9c20.5,3.3,41,9,60.7,14
	c11.5,2.5,22.2,4.9,33.7,7.4c9,2.5,18.1,4.1,31.2,7.4c-2.5-8.2-3.3-15.6-6.6-21.3c-15.6-27.1-32-54.2-46.8-82.1
	c-8.2-16.4-17.2-7.4-26.3-3.3c-9.8,4.1-19.7,9.9-29.5,10.7c-27.1,2.5-54.2,3.3-81.3,4.9c-42.7,1.6-84.5,4.1-127.2,2.5
	c-51.7-1.6-102.6-8.2-151.8-25.4c-22.2-8.2-46-12.3-68.1-20.5c-10.7-4.1-18.9-14.8-28.7-21.3c-10.7-8.2-23-14.8-33.7-23
	c-27.9-23-57.5-46-68.1-82.1c-6.6-22.2,6.6-35.3,34.5-39.4c9-1.6,18.1-3.3,26.3-3.3l83.7,2.5c18.1,0.8,36.9,0.8,55,2.5
	c24.6,2.5,50.1,5.7,74.7,9.8c32.8,5.7,65.7,9.8,97.7,18.9c69.8,19.7,136.3,47.6,197.8,86.2c9,5.7,18.1,9.9,29.5,16.4
	c0.8-26.3-17.2-34.5-32-46c-29.5-22.2-61.6-41-87.8-66.5c-38.6-37.8-72.2-80.4-96.8-127.2c-25.4-49.3-48.4-101-55-157.6
	c-1.6-14-7.4-27.1-6.6-40.2c3.3-36.1-10.7-71.4-5.7-106.7c3.3-27.1,7.4-54.2,10.7-81.3c1.6-14,2.5-27.9,4.9-41
	c4.1-24.6,19.7-42.7,36.9-59.1c14-13.1,28.7-9.9,44.3,2.5c27.9,21.3,47.6,49.3,64,78.8c21.3,36.9,40.2,75.5,59.9,113.3
	c18.9,36.9,39.4,72.2,55,110.8c12.3,30.4,17.2,63.2,26.3,94.4c3.3,9.8,10.7,19.7,11.5,30.4c3.3,42.7,18.1,84.5,16.4,128.1
	c-1.6,33.7-0.8,67.3,0,100.2c0,9,1.6,18.9,3.3,27.9h9.8c6.6-43.5,11.5-88.6,19.7-131.4c8.2-38.6,18.1-77.2,32.8-114.1
	c21.3-55,43.5-109.2,71.4-161.7c19.7-36.9,46-71.4,73-104.2c15.6-18.9,37.8-9.8,46.8,13.1c9,23,19.7,44.3,29.5,67.3
	c0.8,1.6,0,4.1-0.8,6.6c-9,26.3,4.1,52.5,0,77.2c-7.4,45.1-18.9,88.6-31.2,133c-15.6,59.1-50.9,108.4-90.3,153.5
	c-32.8,37.8-71.4,69-108.4,103.4c-18.1,17.2-19.7,48.4-6.6,68.1c14,20.5,23.8,44.3,36.1,66.5c3.3,5.7,7.4,9.8,10.7,13.9
	c19.7-49.3,41-96.9,59.9-146.1c27.1-70.6,69-132.2,116.6-189.6c13.1-15.6,27.9-29.5,44.3-46c9.9,42.7,1.6,78-25.4,110.8
	c-23.8,28.7-42.7,60.7-63.2,91.9c-14.8,23-27.9,46-41.9,69.8c-3.3,5.7-4.9,13.1-7.4,19.7c1.8,0.8,3.5,1.9,4.9,3.3
	c43.5-61.6,87.8-123.9,133-187.1c9,29.5-4.9,47.6-20.5,64.8c-10.7,11.5-18.1,25.4-27.1,38.6c-9,13.1-18.9,26.3-27.9,40.2
	c-15.6,23-31.2,46.8-47.6,69c-10.7,15.6-23,30.4-31.2,49.3L996,787c8.2,20.5-2.5,36.1-20.5,50.1c-33.7,25.4-69,50.1-101.8,77.2
	c-24.6,20.5-46.8,43.5-71.4,67.3c14.8,55.8,61.6,95.2,90.3,146.9c13.9-38.6,25.4-76.3,41.9-111.6c16.4-35.3,37.8-69,57.5-105.1
	c9.8,23,7.4,60.7-4.1,77.2c-29.5,41.9-39.4,91.9-52.5,139.5c-0.8,2.5,0.8,4.9,1.6,10.7c20.5-25.4,39.4-48.4,58.3-72.2
	c2,1,4.3,1.6,6.6,1.6c-5.7,19.7-12.3,40.2-17.2,59.1c1.6-0.8,6.6-2.5,11.5-4.1c6.6,23-2.5,35.3-23,44.3
	c-27.1,11.5-39.4,42.7-26.3,68.1c10.3,20.3,23,39.3,37.8,56.6c16.4,18.1,14,37.8,11.5,63.2c-19.7-32-36.1-59.1-53.4-87
	c-8.2-13.1-15.6-26.3-23.8-39.4c-4.1-5.7-3.3-21.3-15.6-11.5c-4.9,4.1-6.6,18.1-3.3,23.8c6.6,10.7,18.9,18.1,26.3,27.9
	c8.2,10.7,13.1,23,19.7,34.5c15.6,27.1,33.7,53.4,46.8,81.3c6.6,13.1,4.1,30.4,5.7,41.9c-14,5.7-26.3,7.4-35.3,13.9
	c-38.5,25.5-80.5,45.1-124.7,58.3c-23,6.6-45.2,19.7-69,23.8c-66.5,11.5-133.8,22.2-201.9,9c-27.1-4.9-54.2-12.3-78.8-23.8
	c-34.5-16.4-64.9-38.6-83.7-73.9c-7.4-14.8-1.6-25.4,9-30.4c26.3-12.3,52.5-23.8,81.3-30.4c42.7-9.8,86.2-15.6,129.7-21.3
	c28.9-3.4,57.9-4.8,87-4.1c51.7,1.6,103.4,6.6,155.1,9.8c29.5,1.6,58.3,4.9,90.3,7.4c-9-13.1-17.2-24.6-25.4-36.1
	c-17.2-25.4-35.3-50.1-50.1-75.5c-8.2-14-17.2-10.7-27.1-5.7c-16.4,8.2-32,20.5-49.3,26.3c-24.6,8-49.9,14.1-75.5,18
	c-32,5.7-64,9.9-96.9,14c-56.6,7.4-114.1,9.8-170.7-0.8c-30.4-5.7-60.7-11.5-90.3-21.3c-25.4-9-50.1-21.3-73.1-34.5
	c-18.1-10.7-34.5-25.4-41-46.8c-4.1-14-23.8-29.5-9-41c16.4-13.1,39.4-21.3,60.7-23.8c55-7.4,110.8-11.5,166.6-13.9
	c36.1-1.6,72.2,1.6,108.3,4.9c45.2,3.3,90.3,7.4,134.6,14.8C760.6,1143.9,802.5,1155.4,846,1164.4z M803.3,1047.9
	c2.5,6.6,3.3,14.8,7.4,19.7c18.9,27.1,38.6,54.2,58.3,81.3c6.6,9,10.7,18,17.2,27.1c6.6,8.2,13.1,15.6,23.8,27.9
	c0-9.8,1.6-14.8-0.8-17.2c-27.9-32-52.5-66.5-73.1-104.2C829.5,1069.2,814.8,1060.2,803.3,1047.9c-7.4-19.7-14-40.2-19.7-61.6
	c-2.5-8.2-2.5-16.4-4.1-26.3c-0.8,0-8.2,1.6-10.7-1.6c-9.4-11.1-17.9-22.9-25.4-35.3c-12.3-21.3-20.5-46-35.3-64.8
	c-13.1-17.2-19.7-33.7-14-54.2c5.7-19.7-6.6-27.9-22.2-34.5c-2.5,10.7-4.9,20.5-6.6,29.5c-0.8,6.6-3.3,15.6,0,20.5
	c14.8,25.4,31.2,49.3,46.8,73.9c5.7,9,10.7,18.1,15.6,27.1c10.7,18.1,21.3,35.3,31.2,54.2c1.6,2.5-5.7,9.8-9,14.8
	C768,1009.3,786.1,1029,803.3,1047.9L803.3,1047.9z M632.6,717.9c-27.9-73.1-53.4-141.2-78.8-208.5c-26.3-69.8-56.6-137.9-78-208.5
	c-21.3-71.4-50.1-139.5-66.5-218.3C369.1,336.2,430.7,549.6,632.6,717.9z M425.7,61.2c51.7,211,138.7,409.6,215.1,613.2
	C670.4,519.2,543.1,171.2,425.7,61.2z M277.2,1168.5c91.9,27.9,184.7,50.9,282.4,53.4s193.7-8.2,288.9-26.3
	C659.7,1152.1,470.1,1125,277.2,1168.5z M732.8,731.8C890.4,615.3,965.9,401,911.7,245.1c-3.3,7.4-7.4,11.5-7.4,15.6
	c0.8,52.5-17.2,100.2-37.8,146.9c-25.4,56.6-49.3,113.3-72.2,170.7C773,629.2,753.3,679.3,732.8,731.8z M84.3,668.6
	c162.5,68.1,329.1,114.1,508.1,113.3C434,685.1,264.1,653.9,84.3,668.6L84.3,668.6z M928.1,1390.9c-8.2-2.5-13.1-4.1-18.1-4.9
	c-31.2-3.3-63.2-6.6-94.4-9c-30.4-2.5-60.7-4.1-90.3-5.7c-23.8-0.8-48.4-3.3-73.1-1.6c-32,1.6-63.2,7.4-95.2,10.7
	c-13.1,1.6-26.3,0-38.6,1.6c-14.8,2.5-29.6,7.4-44.3,12.3c-10.7,4.1-21.3,9.9-34.5,16.4C515.2,1440.2,844.4,1426.3,928.1,1390.9
	L928.1,1390.9z M200,944.4c0,4.1,0.8,7.4,0.8,11.5c30.4,4.1,60.7,9,91.9,12.3c40.2,4.1,80.4,9,121.5,9c50.1,0,99.3-4.1,149.4-7.4
	c18.1-0.8,36.9-1.6,55-4.1c9.8-1.6,19.7-6.6,29.5-9c-8.2-6.6-15.6-7.4-22.2-9c-23.8-4.9-48.4-11.5-73-14.8
	c-23.8-3.3-48.4,0.8-70.6-4.1c-59.1-13.9-118.2-9-177.3-7.4c-8.2,0-15.6,6.6-23.8,8.2C253.4,935.4,226.3,939.5,200,944.4z
	 M445.5,1434.5c54.2,73.9,379.2,64.8,477.7-18.1C763.9,1447.6,604.7,1449.2,445.5,1434.5z M68.7,686.7v2.5
	c10.7,7.4,20.5,14.8,31.2,22.2c23.8,15.6,46.8,34.5,73.1,46c55,24.6,110,47.6,173.2,46c49.2-0.8,99.3,3.3,148.6,4.9h27.9
	c-0.1-2.5,0.1-5,0.8-7.4c-39.4-3.3-78.8-3.3-118.2-9.8c-37.8-6.6-76.3-7.4-112.5-20.5c-36.9-13.1-73.9-27.1-111.6-41
	S106.4,700.6,68.7,686.7L68.7,686.7z M239.4,987.9c140.4,65.7,279.9,42.7,419.4-2.5C519.3,999.4,379.8,1003.5,239.4,987.9z
	 M338.7,1213.7c0.1,2.2-0.1,4.4-0.8,6.6c142.8,68.1,290.6,52.5,444.1,22.2c-5.7-4.9-7.4-8.2-9.8-8.2c-23.8,0.8-47.6,1.6-70.6,3.3
	c-26.3,1.6-53.4,3.3-79.6,5.7c-15.6,1.6-31.2,5.7-46,4.9c-24.6-0.8-49.3-4.1-73.9-6.6c-23.8-2.5-48.4-4.1-72.2-9
	C399.5,1228.4,369.1,1220.2,338.7,1213.7z M759.8,601.3l123.1-300.4c-3.3-1.6-6.6-2.5-9.8-4.1C822.2,392.8,777.9,491.3,759.8,601.3
	L759.8,601.3z"/>
</svg>
