<?xml version="1.0" encoding="utf-8"?>
<!-- Generator: Adobe Illustrator 24.3.0, SVG Export Plug-In . SVG Version: 6.00 Build 0)  -->
<svg version="1.1" id="Layer_1" xmlns="http://www.w3.org/2000/svg" xmlns:xlink="http://www.w3.org/1999/xlink" x="0px" y="0px"
	 viewBox="0 0 3465.4 2439.8" style="enable-background:new 0 0 3465.4 2439.8;" xml:space="preserve">
<style type="text/css">
	.st0{display:none;}
	.st1{fill:#048166;}
	.st2{fill:#FFFFFF;}
	.st3{fill:none;}
	.st4{font-family:'Gilroy-ExtraBold';}
	.st5{font-size:215.7631px;}
	.st6{font-size:63.4645px;}
	.st7{fill:#2D354B;}
	.st8{fill:#058267;}
	.st9{fill:#61C192;}
	.st10{fill:#2D354A;}
</style>
<g id="color_x5F_pallette" class="st0">
	
		<image style="display:inline;overflow:visible;enable-background:new    ;" width="677" height="655" xlink:href="C41E06C921192A59.png"  transform="matrix(1.4983 0 0 1.4983 3550.0413 156.2565)">
	</image>
</g>
<g id="white_x5F_logo">
	<rect x="2329.1" y="91.8" class="st1" width="1033.3" height="1080"/>
	<g id="Layer_8">
	</g>
	<path class="st2" d="M2982.8,713.2"/>
	<path class="st2" d="M2575.5,652c-2.2-3.2-4.2-6.1-6.2-9.1c-2.2-3.2-4.3-6.5-6.5-9.6c-0.3-0.5-1.5-0.9-1.9-0.7
		c-5.4,3-11.3,4.2-17.3,5c-6.6,0.9-13.2,1.4-19.8,1.8c-4.1,0.3-8.3,0.4-12.4,0.1c-5.1-0.4-10-1.9-14.3-4.8c-2.3-1.5-4.4-3.3-6.4-5.1
		c-2.1-2-1.5-5.2,1.4-5.5c3.5-0.5,6.4-2.6,10.1-2.7c4.5-0.1,9-1.5,13.5-2.2c1.8-0.3,3.6-0.1,5.4,0.1c3.6,0.3,7.2,0.7,10.8,1
		c3.6,0.3,7.3,0.6,10.9,1.1c2.5,0.4,5,1.1,7.5,1.7c1.4,0.3,2.7,0.6,4.1,0.9c1.1,0.3,2.2,0.5,3.8,0.9c-0.3-1-0.4-1.9-0.8-2.6
		c-1.9-3.3-3.9-6.6-5.7-10c-1-2-2.1-0.9-3.2-0.4c-1.2,0.5-2.4,1.2-3.6,1.3c-3.3,0.3-6.6,0.5-9.9,0.6c-5.2,0.2-10.3,0.5-15.5,0.3
		c-6.3-0.2-12.5-1-18.5-3.1c-2.7-1-5.6-1.5-8.3-2.5c-1.3-0.5-2.3-1.8-3.5-2.6c-1.3-1-2.8-1.8-4.1-2.9c-3.4-2.8-7-5.6-8.3-10
		c-0.8-2.7,0.8-4.3,4.2-4.9c1.1-0.2,2.2-0.4,3.2-0.4c3.4,0.1,6.8,0.2,10.2,0.3c2.2,0.1,4.5,0.1,6.7,0.3c3,0.3,6.1,0.7,9.1,1.2
		c4,0.7,8,1.2,11.9,2.3c8.5,2.4,16.6,5.8,24.1,10.5c1.1,0.7,2.2,1.2,3.6,2c0.1-3.1-2.1-4.2-3.9-5.6c-3.5-2.7-7.5-5-10.7-8.1
		c-4.7-4.5-8.8-9.8-11.8-15.5c-3.2-6-5.9-12.3-6.7-19.2c-0.2-1.7-0.9-3.3-0.8-4.9c0.5-4.4-1.3-8.7-0.7-13c0.4-3.3,0.9-6.6,1.3-9.9
		c0.2-1.7,0.3-3.4,0.6-5c0.5-3,2.4-5.2,4.5-7.2c1.7-1.6,3.5-1.2,5.4,0.3c3.4,2.6,5.8,6,7.8,9.6c2.5,4.5,4.9,9.2,7.3,13.8
		c2.3,4.5,4.8,8.9,6.7,13.5c1.5,3.7,2.1,7.7,3.2,11.5c0.3,1.2,1.3,2.4,1.4,3.7c0.4,5.2,2.2,10.3,2,15.6c-0.2,4.1-0.1,8.2,0,12.2
		c0,1.1,0.2,2.3,0.4,3.4c0.4,0,0.8,0,1.2,0c0.8-5.4,1.3-10.8,2.5-16c1-4.7,2.2-9.4,4-13.9c2.6-6.7,5.3-13.3,8.7-19.7
		c2.4-4.5,5.6-8.7,8.9-12.6c1.9-2.3,4.6-1.2,5.7,1.5c1.1,2.8,2.4,5.4,3.6,8.2c0.1,0.2,0,0.5-0.1,0.8c-1.1,3.1,0.5,6.4,0,9.4
		c-0.8,5.5-2.3,10.9-3.8,16.2c-2,7.2-6.2,13.2-11,18.7c-4,4.6-8.7,8.4-13.2,12.6c-2.2,2-2.5,5.9-0.8,8.3c1.7,2.5,2.9,5.4,4.4,8.1
		c0.4,0.7,0.9,1.2,1.3,1.7c2.4-6,5-11.8,7.3-17.8c3.3-8.6,8.4-16,14.2-23.1c1.6-1.9,3.4-3.6,5.4-5.6c1.2,5.2,0.2,9.5-3.1,13.5
		c-2.9,3.5-5.2,7.4-7.7,11.1c-1.8,2.8-3.4,5.6-5.1,8.5c-0.4,0.7-0.6,1.6-0.9,2.4c0.2,0.1,0.4,0.2,0.6,0.4c5.3-7.5,10.7-15,16.2-22.8
		c1.1,3.6-0.5,5.8-2.5,7.9c-1.3,1.4-2.2,3.1-3.3,4.7c-1.2,1.6-2.3,3.2-3.5,4.9c-1.9,2.8-3.8,5.7-5.8,8.4c-1.3,1.9-2.8,3.7-3.8,6
		c6.3-5.2,12.6-10.4,18.9-15.6c1,2.5-0.3,4.4-2.5,6c-4.2,3.1-8.4,6.1-12.4,9.4c-3,2.5-5.7,5.3-8.7,8.2c1.8,6.8,7.5,11.6,11,17.9
		c1.7-4.7,3.1-9.3,5.1-13.6s4.5-8.4,7-12.8c1.2,2.8,0.8,7.4-0.5,9.4c-3.6,5.1-4.8,11.2-6.4,17c-0.1,0.3,0.1,0.6,0.2,1.3
		c2.5-3.1,4.8-5.9,7-8.8c0.2,0.1,0.5,0.2,0.8,0.2c-0.7,2.4-1.5,4.9-2.2,7.2c0.2-0.1,0.8-0.3,1.4-0.5c0.8,2.8-0.3,4.3-2.8,5.4
		c-3.3,1.4-4.8,5.2-3.2,8.3c1.2,2.5,2.8,4.8,4.6,6.9c2,2.2,1.7,4.6,1.4,7.7c-2.4-3.9-4.4-7.2-6.5-10.6c-1-1.6-1.9-3.2-2.9-4.8
		c-0.5-0.7-0.4-2.6-1.9-1.4c-0.6,0.5-0.8,2.2-0.4,2.9c0.8,1.3,2.3,2.2,3.2,3.4c1,1.3,1.6,2.8,2.4,4.2c1.9,3.3,4.1,6.5,5.7,9.9
		c0.8,1.6,0.5,3.7,0.7,5.1c-1.7,0.7-3.2,0.9-4.3,1.7c-4.7,3.1-9.8,5.5-15.2,7.1c-2.8,0.8-5.5,2.4-8.3,2.9
		c-8.1,1.4-16.3,2.7-24.6,1.1c-3.3-0.6-6.6-1.5-9.6-2.9c-4.2-2-7.9-4.7-10.2-9c-1-1.8-0.2-3.1,1.1-3.7c3.2-1.5,6.5-2.9,9.8-3.7
		c5.2-1.2,10.5-1.9,15.8-2.6c3.5-0.4,7-0.6,10.5-0.5c6.3,0.2,12.6,0.8,19,1.2c3.5,0.2,7.1,0.5,11,0.9c-1.1-1.5-2.2-3-3.2-4.4
		c-2.1-3-4.3-6-6.1-9.2c-1-1.7-2.1-1.3-3.3-0.7c-2,1-3.9,2.5-6,3.2c-3,1-6.1,1.7-9.2,2.2c-3.9,0.7-7.8,1.2-11.8,1.7
		c-6.9,0.9-13.9,1.2-20.8-0.1c-3.7-0.7-7.4-1.4-11-2.6c-3.1-1-6.1-2.6-8.9-4.2c-2.2-1.3-4.2-3.1-5-5.7c-0.5-1.7-2.9-3.6-1.1-5
		c2-1.6,4.8-2.6,7.4-2.9c6.7-0.9,13.5-1.4,20.3-1.7c4.4-0.2,8.8,0.2,13.2,0.6c5.5,0.5,11,0.9,16.4,1.8
		C2565,649.5,2570.1,650.8,2575.5,652z M2570.3,637.8c0.3,0.8,0.4,1.8,0.9,2.4c2.3,3.3,4.7,6.6,7.1,9.9c0.8,1,1.3,2.2,2.1,3.3
		c0.8,1,1.6,1.9,2.9,3.4c0-1.2,0.2-1.8,0-2.1c-3.4-3.9-6.4-8-8.9-12.7C2573.5,640.3,2571.6,639.2,2570.3,637.8
		c-0.8-2.5-1.7-4.9-2.4-7.5c-0.3-1-0.3-2-0.5-3.2c-0.1,0-1,0.2-1.3-0.2c-1.2-1.3-2.2-2.8-3.1-4.3c-1.5-2.6-2.5-5.6-4.3-7.9
		c-1.6-2.1-2.4-4.1-1.7-6.6s-0.8-3.4-2.7-4.2c-0.3,1.3-0.6,2.5-0.8,3.6c-0.1,0.8-0.3,1.9,0,2.5c1.8,3,3.8,6,5.7,9
		c0.7,1.1,1.3,2.2,1.9,3.3c1.3,2.2,2.6,4.3,3.8,6.6c0.2,0.3-0.7,1.2-1,1.8C2565.9,633,2568.1,635.4,2570.3,637.8z M2549.5,597.6
		c-3.4-8.9-6.5-17.2-9.6-25.4c-3.2-8.5-7-16.8-9.5-25.4c-2.6-8.7-6.1-17-8.2-26.5C2517.3,551.1,2524.8,577,2549.5,597.6z
		 M2524.3,517.5c6.3,25.7,16.9,49.9,26.2,74.7C2554,573.4,2538.6,530.9,2524.3,517.5z M2506.2,652.4c11.2,3.4,22.5,6.2,34.4,6.5
		c11.9,0.3,23.6-1,35.2-3.2C2552.7,650.4,2529.6,647.2,2506.2,652.4z M2561.6,599.3c19.2-14.2,28.4-40.3,21.8-59.3
		c-0.5,0.9-1,1.4-0.9,1.9c0.2,6.4-2.1,12.2-4.7,17.9c-3.1,6.9-6,13.9-8.8,20.8C2566.5,586.7,2564.2,592.8,2561.6,599.3z
		 M2482.6,591.5c19.8,8.3,40.1,14,61.9,13.8C2525.3,593.6,2504.5,589.7,2482.6,591.5z M2585.5,679.5c-1-0.3-1.6-0.5-2.2-0.6
		c-3.8-0.4-7.7-0.8-11.5-1.1c-3.7-0.3-7.3-0.5-11-0.7c-3-0.1-5.9-0.4-8.9-0.2c-3.9,0.2-7.7,0.9-11.6,1.3c-1.6,0.2-3.2,0-4.7,0.2
		c-1.8,0.3-3.6,0.9-5.4,1.5c-1.3,0.5-2.6,1.2-4.2,2C2535.1,685.6,2575.3,683.8,2585.5,679.5z M2496.7,625.2c0,0.5,0.1,0.9,0.1,1.4
		c3.7,0.5,7.4,1.1,11.2,1.5c4.9,0.5,9.8,1.1,14.8,1.1c6.1,0,12.2-0.5,18.2-0.9c2.2-0.1,4.5-0.2,6.7-0.5c1.2-0.2,2.4-0.8,3.7-1.1
		c-1-0.8-1.9-1-2.7-1.1c-3-0.6-5.9-1.4-8.8-1.8c-2.8-0.4-5.8,0.1-8.6-0.5c-7.2-1.7-14.4-1.1-21.6-0.9c-1,0-1.9,0.8-2.9,1
		C2503.3,624,2500,624.6,2496.7,625.2z M2526.7,684.8c6.6,9,46.2,8,58.2-2.2C2565.5,686.4,2546,686.7,2526.7,684.8z M2480.7,593.8
		c0,0.1,0,0.2,0,0.3c1.3,0.9,2.5,1.9,3.8,2.7c2.9,1.9,5.7,4.2,8.9,5.6c6.7,3,13.5,5.8,21.1,5.6c6-0.1,12.1,0.4,18.1,0.6
		c1.1,0,2.2,0,3.4,0c0-0.3,0-0.6,0.1-0.9c-4.8-0.4-9.7-0.4-14.4-1.2c-4.6-0.8-9.3-0.9-13.7-2.5c-4.5-1.6-9-3.3-13.6-5
		C2489.9,597.2,2485.3,595.5,2480.7,593.8z M2501.6,630.4c17.1,8,34.1,5.2,51.1-0.3C2535.7,631.9,2518.6,632.3,2501.6,630.4z
		 M2513.7,657.9c0,0.3,0,0.5-0.1,0.8c17.4,8.3,35.4,6.4,54.1,2.7c-0.7-0.6-0.9-1-1.2-1c-2.9,0.1-5.8,0.2-8.7,0.4
		c-3.2,0.2-6.5,0.4-9.7,0.7c-1.9,0.2-3.8,0.7-5.6,0.6c-3-0.1-6-0.5-9-0.8s-5.9-0.5-8.8-1.1C2521,659.7,2517.4,658.8,2513.7,657.9z
		 M2565,583.3c5-12.2,10-24.4,15-36.6c-0.4-0.2-0.8-0.3-1.2-0.5C2572.6,558,2567.1,569.9,2565,583.3z"/>
	<rect x="2577.7" y="541.6" class="st3" width="1143.8" height="457.7"/>
	<text transform="matrix(0.9985 0 0 1 2577.624 692.5575)" class="st2 st4 st5">ЕСМУ</text>
	<text transform="matrix(0.9985 0 0 1 2982.7217 770.3632)" class="st2 st4 st6">Ми є.</text>
	<path class="st7" d="M1798.3,713.3"/>
	<path class="st8" d="M666.1,695.1"/>
</g>
<g id="eng_x5F_whitelogo">
	<rect x="2329.1" y="1288.2" class="st1" width="1033.3" height="1080"/>
	<path class="st8" d="M2991.1,1887.2"/>
	<rect x="2585.9" y="1715.6" class="st3" width="1143.8" height="457.7"/>
	<text transform="matrix(0.9985 0 0 1 2585.8867 1866.5555)" class="st2 st4 st5">ESMU</text>
	<path class="st2" d="M2583.7,1826c-2.2-3.2-4.2-6.1-6.2-9.1c-2.2-3.2-4.3-6.5-6.5-9.6c-0.3-0.5-1.5-0.9-1.9-0.7
		c-5.4,3-11.3,4.2-17.3,5c-6.6,0.9-13.2,1.4-19.8,1.8c-4.1,0.3-8.3,0.4-12.4,0.1c-5.1-0.4-10-1.9-14.3-4.8c-2.3-1.5-4.4-3.3-6.4-5.1
		c-2.1-2-1.5-5.2,1.4-5.5c3.5-0.4,6.4-2.6,10.1-2.7c4.5-0.1,9-1.5,13.5-2.2c1.8-0.3,3.6-0.1,5.4,0.1c3.6,0.3,7.2,0.7,10.8,1
		c3.6,0.3,7.3,0.6,10.9,1.1c2.5,0.4,5,1.1,7.5,1.7c1.4,0.3,2.7,0.6,4.1,0.9c1.1,0.3,2.2,0.5,3.8,0.9c-0.3-1-0.4-1.9-0.8-2.6
		c-1.9-3.3-3.9-6.6-5.7-10c-1-2-2.1-0.9-3.2-0.4c-1.2,0.5-2.4,1.2-3.6,1.3c-3.3,0.3-6.6,0.4-9.9,0.6c-5.2,0.2-10.3,0.5-15.5,0.3
		c-6.3-0.2-12.5-1-18.5-3.1c-2.7-1-5.6-1.5-8.3-2.5c-1.3-0.5-2.3-1.8-3.5-2.6c-1.3-1-2.8-1.8-4.1-2.8c-3.4-2.8-7-5.6-8.3-10
		c-0.8-2.7,0.8-4.3,4.2-4.8c1.1-0.2,2.2-0.4,3.2-0.4c3.4,0.1,6.8,0.2,10.2,0.3c2.2,0.1,4.5,0.1,6.7,0.3c3,0.3,6.1,0.7,9.1,1.2
		c4,0.7,8,1.2,11.9,2.3c8.5,2.4,16.6,5.8,24.1,10.5c1.1,0.7,2.2,1.2,3.6,2c0.1-3.2-2.1-4.2-3.9-5.6c-3.5-2.7-7.5-5-10.7-8.1
		c-4.7-4.6-8.8-9.8-11.8-15.5c-3.2-6-5.9-12.3-6.7-19.2c-0.2-1.7-0.9-3.3-0.8-4.9c0.5-4.4-1.3-8.7-0.7-13c0.4-3.3,0.9-6.6,1.3-9.9
		c0.2-1.7,0.3-3.4,0.6-5c0.5-3,2.4-5.2,4.5-7.2c1.7-1.6,3.5-1.2,5.4,0.3c3.4,2.6,5.8,6,7.8,9.6c2.5,4.5,4.9,9.2,7.3,13.8
		c2.3,4.5,4.8,8.8,6.7,13.5c1.5,3.7,2.1,7.7,3.2,11.5c0.3,1.2,1.3,2.4,1.4,3.7c0.4,5.2,2.2,10.3,2,15.6c-0.2,4.1-0.1,8.2,0,12.2
		c0,1.1,0.2,2.3,0.4,3.4c0.4,0,0.8,0,1.2,0c0.8-5.3,1.3-10.8,2.5-16c1-4.7,2.2-9.4,4-13.9c2.6-6.7,5.3-13.3,8.7-19.7
		c2.4-4.5,5.6-8.7,8.9-12.7c1.9-2.3,4.6-1.2,5.7,1.6c1.1,2.8,2.4,5.4,3.6,8.2c0.1,0.2,0,0.5-0.1,0.8c-1.1,3.2,0.5,6.4,0,9.4
		c-0.8,5.5-2.3,10.8-3.8,16.2c-2,7.2-6.2,13.2-11,18.7c-4,4.6-8.7,8.4-13.2,12.6c-2.2,2.1-2.5,5.9-0.8,8.3c1.7,2.5,2.9,5.4,4.4,8.1
		c0.4,0.7,0.9,1.2,1.3,1.7c2.4-6,5-11.8,7.3-17.8c3.3-8.6,8.4-16.1,14.2-23.1c1.6-1.9,3.4-3.6,5.4-5.6c1.2,5.2,0.2,9.5-3.1,13.5
		c-2.9,3.5-5.2,7.4-7.7,11.2c-1.8,2.8-3.4,5.6-5.1,8.5c-0.4,0.7-0.6,1.6-0.9,2.4c0.2,0.1,0.4,0.2,0.6,0.4
		c5.3-7.5,10.7-15.1,16.2-22.8c1.1,3.6-0.5,5.8-2.5,7.9c-1.3,1.4-2.2,3.1-3.3,4.7c-1.2,1.6-2.3,3.2-3.5,4.9
		c-1.9,2.8-3.8,5.7-5.8,8.4c-1.3,1.9-2.8,3.7-3.8,6c6.3-5.2,12.6-10.4,18.9-15.6c1,2.5-0.3,4.4-2.5,6.1c-4.2,3.1-8.4,6.1-12.4,9.4
		c-3,2.5-5.7,5.3-8.7,8.2c1.8,6.8,7.5,11.6,11,17.9c1.7-4.7,3.1-9.3,5.1-13.6c2-4.3,4.5-8.4,7-12.8c1.2,2.8,0.8,7.4-0.5,9.4
		c-3.6,5.1-4.8,11.2-6.4,17c-0.1,0.3,0.1,0.6,0.2,1.3c2.5-3.1,4.8-5.9,7-8.8c0.2,0.1,0.5,0.2,0.8,0.2c-0.7,2.4-1.5,4.9-2.2,7.2
		c0.2-0.1,0.8-0.3,1.4-0.5c0.8,2.8-0.3,4.3-2.8,5.4c-3.3,1.4-4.8,5.2-3.2,8.3c1.2,2.4,2.8,4.8,4.6,6.9c2,2.2,1.7,4.6,1.4,7.7
		c-2.4-3.9-4.4-7.2-6.5-10.6c-1-1.6-1.9-3.2-2.9-4.8c-0.5-0.7-0.4-2.6-1.9-1.4c-0.6,0.5-0.8,2.2-0.4,2.9c0.8,1.3,2.3,2.2,3.2,3.4
		c1,1.3,1.6,2.8,2.4,4.2c1.9,3.3,4.1,6.5,5.7,9.9c0.8,1.6,0.5,3.7,0.7,5.1c-1.7,0.7-3.2,0.9-4.3,1.7c-4.7,3.1-9.8,5.5-15.2,7.1
		c-2.8,0.8-5.5,2.4-8.3,2.9c-8.1,1.4-16.3,2.7-24.6,1.1c-3.3-0.6-6.6-1.5-9.6-2.9c-4.2-2-7.9-4.7-10.2-9c-1-1.8-0.2-3.1,1.1-3.7
		c3.2-1.5,6.5-2.9,9.8-3.7c5.2-1.2,10.5-1.9,15.8-2.6c3.5-0.4,7-0.6,10.5-0.5c6.3,0.2,12.6,0.8,19,1.2c3.5,0.2,7.1,0.6,11,0.9
		c-1.1-1.6-2.2-3-3.2-4.4c-2.1-3.1-4.3-6.1-6.1-9.2c-1-1.7-2.1-1.3-3.3-0.7c-2,1-3.9,2.5-6,3.2c-3,1-6.1,1.7-9.2,2.2
		c-3.9,0.7-7.8,1.2-11.8,1.7c-6.9,0.9-13.9,1.2-20.8-0.1c-3.7-0.7-7.4-1.4-11-2.6c-3.1-1.1-6.1-2.6-8.9-4.2c-2.2-1.3-4.2-3.1-5-5.7
		c-0.5-1.7-2.9-3.6-1.1-5c2-1.6,4.8-2.6,7.4-2.9c6.7-0.9,13.5-1.4,20.3-1.7c4.4-0.2,8.8,0.2,13.2,0.6c5.5,0.4,11,0.9,16.4,1.8
		C2573.3,1823.5,2578.4,1824.8,2583.7,1826z M2578.5,1811.8c0.3,0.8,0.4,1.8,0.9,2.4c2.3,3.3,4.7,6.6,7.1,9.9
		c0.8,1.1,1.3,2.2,2.1,3.3c0.8,1,1.6,1.9,2.9,3.4c0-1.2,0.2-1.8,0-2.1c-3.4-3.9-6.4-8.1-8.9-12.7
		C2581.7,1814.4,2579.9,1813.2,2578.5,1811.8c-0.8-2.4-1.7-4.9-2.4-7.5c-0.3-1-0.3-2-0.5-3.2c-0.1,0-1,0.2-1.3-0.2
		c-1.2-1.3-2.2-2.8-3.1-4.3c-1.5-2.6-2.5-5.6-4.3-7.9c-1.6-2.1-2.4-4.1-1.7-6.6c0.7-2.4-0.8-3.4-2.7-4.2c-0.3,1.3-0.6,2.5-0.8,3.6
		c-0.1,0.8-0.3,1.9,0,2.5c1.8,3.1,3.8,6,5.7,9c0.7,1.1,1.3,2.2,1.9,3.3c1.3,2.2,2.6,4.3,3.8,6.6c0.2,0.3-0.7,1.2-1,1.8
		C2574.2,1807,2576.4,1809.4,2578.5,1811.8z M2557.7,1771.6c-3.4-8.9-6.5-17.2-9.6-25.4c-3.2-8.5-7-16.8-9.5-25.4
		c-2.6-8.7-6.1-17-8.2-26.6C2525.6,1725.1,2533.1,1751,2557.7,1771.6z M2532.6,1691.5c6.3,25.7,16.9,49.9,26.2,74.7
		C2562.3,1747.4,2546.8,1704.9,2532.6,1691.5z M2514.5,1826.4c11.2,3.4,22.5,6.2,34.4,6.5c11.9,0.3,23.6-1,35.2-3.2
		C2561,1824.4,2537.9,1821.2,2514.5,1826.4z M2569.9,1773.3c19.2-14.2,28.4-40.3,21.8-59.3c-0.5,0.9-1,1.4-0.9,1.9
		c0.2,6.4-2.1,12.2-4.7,17.9c-3.1,6.9-6,13.8-8.8,20.8C2574.8,1760.7,2572.4,1766.9,2569.9,1773.3z M2490.9,1765.5
		c19.8,8.3,40.1,13.9,61.9,13.8C2533.5,1767.6,2512.8,1763.7,2490.9,1765.5z M2593.7,1853.5c-1-0.3-1.6-0.5-2.2-0.6
		c-3.8-0.4-7.7-0.8-11.5-1.1c-3.7-0.3-7.3-0.5-11-0.7c-3-0.1-5.9-0.4-8.9-0.2c-3.9,0.2-7.7,0.9-11.6,1.3c-1.6,0.2-3.2,0-4.7,0.2
		c-1.8,0.3-3.6,0.9-5.4,1.5c-1.3,0.5-2.6,1.2-4.2,2C2543.4,1859.6,2583.5,1857.8,2593.7,1853.5z M2505,1799.2c0,0.5,0.1,0.9,0.1,1.4
		c3.7,0.5,7.4,1.1,11.2,1.5c4.9,0.5,9.8,1.1,14.8,1.1c6.1,0,12.2-0.5,18.2-0.9c2.2-0.1,4.5-0.2,6.7-0.5c1.2-0.2,2.4-0.8,3.7-1.1
		c-1-0.8-1.9-0.9-2.7-1.1c-3-0.6-5.9-1.4-8.8-1.8c-2.8-0.4-5.8,0.1-8.6-0.5c-7.2-1.7-14.4-1.1-21.6-0.9c-1,0-1.9,0.8-2.9,1
		C2511.5,1798,2508.3,1798.6,2505,1799.2z M2534.9,1858.8c6.6,9,46.2,7.9,58.2-2.2C2573.8,1860.4,2554.3,1860.7,2534.9,1858.8z
		 M2489,1767.7c0,0.1,0,0.2,0,0.3c1.3,0.9,2.5,1.8,3.8,2.7c2.9,1.9,5.7,4.2,8.9,5.6c6.7,3,13.5,5.8,21.1,5.6
		c6-0.1,12.1,0.4,18.1,0.6c1.1,0,2.2,0,3.4,0c0-0.3,0-0.6,0.1-0.9c-4.8-0.4-9.7-0.4-14.4-1.2c-4.6-0.8-9.3-0.9-13.7-2.5
		c-4.5-1.6-9-3.3-13.6-5C2498.2,1771.2,2493.6,1769.5,2489,1767.7z M2509.8,1804.4c17.1,8,34.1,5.2,51.1-0.3
		C2543.9,1805.9,2526.9,1806.4,2509.8,1804.4z M2522,1831.9c0,0.3,0,0.5-0.1,0.8c17.4,8.3,35.4,6.4,54.1,2.7c-0.7-0.6-0.9-1-1.2-1
		c-2.9,0.1-5.8,0.2-8.7,0.4c-3.2,0.2-6.5,0.4-9.7,0.7c-1.9,0.2-3.8,0.7-5.6,0.6c-3-0.1-6-0.5-9-0.8s-5.9-0.5-8.8-1.1
		C2529.3,1833.7,2525.6,1832.8,2522,1831.9z M2573.2,1757.3c5-12.2,10-24.4,15-36.6c-0.4-0.2-0.8-0.3-1.2-0.5
		C2580.9,1732,2575.4,1743.9,2573.2,1757.3z"/>
	<text transform="matrix(0.9985 0 0 1 2909.5571 1944.3612)" class="st2 st4 st6">We are.</text>
</g>
<g id="blue_x5F_logo">
	<text transform="matrix(0.9985 0 0 1 1798.1968 770.5389)" class="st7 st4 st6">Ми є.</text>
	<rect x="1393.1" y="541.8" class="st3" width="1143.8" height="457.7"/>
	<text transform="matrix(0.9985 0 0 1 1393.0991 692.7333)" class="st7 st4 st5">ЕСМУ</text>
	<path class="st7" d="M1390.9,652.1c-2.2-3.2-4.2-6.1-6.2-9.1c-2.2-3.2-4.3-6.5-6.5-9.6c-0.3-0.5-1.5-0.9-1.9-0.7
		c-5.4,3-11.3,4.2-17.3,5c-6.6,0.9-13.2,1.4-19.9,1.8c-4.1,0.3-8.3,0.4-12.4,0.1c-5.1-0.4-10-1.9-14.3-4.8c-2.3-1.5-4.4-3.3-6.4-5.1
		c-2.1-2-1.5-5.2,1.4-5.5c3.5-0.5,6.4-2.6,10.1-2.7c4.5-0.1,8.9-1.5,13.4-2.2c1.8-0.3,3.6-0.1,5.4,0.1c3.6,0.3,7.2,0.7,10.8,1
		s7.3,0.6,10.9,1.1c2.5,0.4,5,1.1,7.4,1.7c1.4,0.3,2.7,0.6,4.1,0.9c1.1,0.3,2.2,0.5,3.8,0.9c-0.3-1-0.4-1.9-0.8-2.6
		c-1.9-3.3-3.9-6.6-5.7-10c-1-2-2.1-0.9-3.2-0.4c-1.2,0.5-2.4,1.2-3.6,1.3c-3.3,0.3-6.6,0.5-9.9,0.6c-5.2,0.2-10.3,0.5-15.5,0.3
		c-6.3-0.2-12.5-1-18.5-3.1c-2.7-1-5.6-1.5-8.3-2.5c-1.3-0.5-2.3-1.8-3.5-2.6c-1.3-1-2.8-1.8-4.1-2.9c-3.4-2.8-7-5.6-8.3-10
		c-0.8-2.7,0.8-4.3,4.2-4.9c1.1-0.2,2.2-0.4,3.2-0.4c3.4,0.1,6.8,0.2,10.2,0.3c2.2,0.1,4.5,0.1,6.7,0.3c3,0.3,6.1,0.7,9.1,1.2
		c4,0.7,8,1.2,11.9,2.3c8.5,2.4,16.6,5.8,24.1,10.5c1.1,0.7,2.2,1.2,3.6,2c0.1-3.1-2.1-4.2-3.9-5.6c-3.6-2.7-7.5-5-10.7-8.1
		c-4.7-4.5-8.8-9.8-11.8-15.5c-3.1-6-5.9-12.3-6.7-19.2c-0.2-1.7-0.9-3.3-0.8-4.9c0.4-4.4-1.3-8.7-0.7-13c0.4-3.3,0.9-6.6,1.3-9.9
		c0.2-1.7,0.3-3.4,0.6-5c0.5-3,2.4-5.2,4.5-7.2c1.7-1.6,3.5-1.2,5.4,0.3c3.4,2.6,5.8,6,7.8,9.6c2.6,4.5,4.9,9.2,7.3,13.8
		c2.3,4.5,4.8,8.9,6.7,13.5c1.5,3.7,2.1,7.7,3.2,11.5c0.4,1.2,1.3,2.4,1.4,3.7c0.4,5.2,2.2,10.3,2,15.6c-0.2,4.1-0.1,8.2,0,12.2
		c0,1.1,0.2,2.3,0.4,3.4c0.4,0,0.8,0,1.2,0c0.8-5.4,1.4-10.8,2.4-16c1-4.7,2.2-9.4,4-13.9c2.6-6.7,5.3-13.3,8.7-19.7
		c2.4-4.5,5.6-8.7,8.9-12.6c1.9-2.3,4.6-1.2,5.7,1.5c1.1,2.8,2.4,5.4,3.6,8.2c0.1,0.2,0,0.5-0.1,0.8c-1.1,3.1,0.5,6.4,0,9.4
		c-0.9,5.5-2.3,10.9-3.8,16.2c-1.9,7.2-6.2,13.2-11,18.7c-4,4.6-8.7,8.4-13.2,12.6c-2.2,2-2.4,5.9-0.8,8.3c1.7,2.5,2.9,5.4,4.4,8.1
		c0.4,0.7,0.9,1.2,1.3,1.7c2.4-6,5-11.8,7.3-17.8c3.3-8.6,8.4-16,14.2-23.1c1.6-1.9,3.4-3.6,5.4-5.6c1.2,5.2,0.2,9.5-3.1,13.5
		c-2.9,3.5-5.2,7.4-7.7,11.1c-1.8,2.8-3.4,5.6-5.1,8.5c-0.4,0.7-0.6,1.6-0.9,2.4c0.2,0.1,0.4,0.2,0.6,0.4c5.3-7.5,10.7-15,16.2-22.8
		c1.1,3.6-0.6,5.8-2.5,7.9c-1.3,1.4-2.2,3.1-3.3,4.7c-1.1,1.6-2.3,3.2-3.4,4.9c-1.9,2.8-3.8,5.7-5.8,8.4c-1.3,1.9-2.8,3.7-3.8,6
		c6.3-5.2,12.6-10.4,18.9-15.6c1,2.5-0.3,4.4-2.5,6c-4.1,3.1-8.4,6.1-12.4,9.4c-3,2.5-5.7,5.3-8.7,8.2c1.8,6.8,7.5,11.6,11,17.9
		c1.7-4.7,3.1-9.3,5.1-13.6s4.6-8.4,7-12.8c1.2,2.8,0.9,7.4-0.5,9.4c-3.6,5.1-4.8,11.2-6.4,17c-0.1,0.3,0.1,0.6,0.2,1.3
		c2.5-3.1,4.8-5.9,7.1-8.8c0.2,0.1,0.5,0.2,0.8,0.2c-0.7,2.4-1.5,4.9-2.1,7.2c0.2-0.1,0.8-0.3,1.4-0.5c0.8,2.8-0.3,4.3-2.8,5.4
		c-3.3,1.4-4.8,5.2-3.2,8.3c1.2,2.5,2.8,4.8,4.6,6.9c2,2.2,1.7,4.6,1.4,7.7c-2.4-3.9-4.4-7.2-6.5-10.6c-1-1.6-1.9-3.2-2.9-4.8
		c-0.5-0.7-0.4-2.6-1.9-1.4c-0.6,0.5-0.8,2.2-0.4,2.9c0.8,1.3,2.3,2.2,3.2,3.4c1,1.3,1.6,2.8,2.4,4.2c1.9,3.3,4.1,6.5,5.7,9.9
		c0.8,1.6,0.5,3.7,0.7,5.1c-1.7,0.7-3.2,0.9-4.3,1.7c-4.7,3.1-9.8,5.5-15.2,7.1c-2.8,0.8-5.5,2.4-8.4,2.9
		c-8.1,1.4-16.3,2.7-24.6,1.1c-3.3-0.6-6.6-1.5-9.6-2.9c-4.2-2-7.9-4.7-10.2-9c-0.9-1.8-0.2-3.1,1.1-3.7c3.2-1.5,6.4-2.9,9.9-3.7
		c5.2-1.2,10.5-1.9,15.8-2.6c3.5-0.4,7-0.6,10.6-0.5c6.3,0.2,12.6,0.8,18.9,1.2c3.6,0.2,7.1,0.5,11,0.9c-1.1-1.5-2.1-3-3.1-4.4
		c-2.1-3-4.3-6-6.1-9.2c-1-1.7-2.1-1.3-3.3-0.7c-2,1-3.9,2.5-6,3.2c-3,1-6.1,1.7-9.2,2.2c-3.9,0.7-7.8,1.2-11.8,1.7
		c-6.9,0.9-13.9,1.2-20.8-0.1c-3.7-0.7-7.4-1.4-11-2.6c-3.1-1-6.1-2.6-8.9-4.2c-2.2-1.3-4.2-3.1-5-5.7c-0.5-1.7-2.9-3.6-1.1-5
		c2-1.6,4.8-2.6,7.4-2.9c6.7-0.9,13.5-1.4,20.3-1.7c4.4-0.2,8.8,0.2,13.2,0.6c5.5,0.5,11,0.9,16.4,1.8
		C1380.5,649.6,1385.6,651,1390.9,652.1z M1385.8,638c0.3,0.8,0.4,1.8,0.9,2.4c2.3,3.3,4.7,6.6,7.1,9.9c0.8,1,1.3,2.2,2.1,3.3
		c0.8,1,1.6,1.9,2.9,3.4c0-1.2,0.2-1.8-0.1-2.1c-3.4-3.9-6.4-8-8.9-12.7C1388.9,640.5,1387.1,639.4,1385.8,638
		c-0.9-2.5-1.7-4.9-2.4-7.5c-0.3-1-0.3-2-0.5-3.2c-0.1,0-1,0.2-1.3-0.2c-1.1-1.3-2.2-2.8-3.1-4.3c-1.5-2.6-2.5-5.6-4.3-7.9
		c-1.6-2.1-2.4-4.1-1.7-6.6s-0.8-3.4-2.7-4.2c-0.3,1.3-0.6,2.5-0.8,3.6c-0.1,0.8-0.4,1.9,0,2.5c1.8,3,3.8,6,5.7,9
		c0.7,1.1,1.3,2.2,1.9,3.3c1.3,2.2,2.6,4.3,3.8,6.6c0.2,0.3-0.7,1.2-1.1,1.8C1381.4,633.2,1383.6,635.6,1385.8,638z M1364.9,597.7
		c-3.4-8.9-6.5-17.2-9.6-25.4c-3.2-8.5-6.9-16.8-9.5-25.4c-2.6-8.7-6.1-17-8.1-26.5C1332.8,551.3,1340.3,577.2,1364.9,597.7z
		 M1339.8,517.7c6.3,25.7,16.9,49.9,26.2,74.7C1369.5,573.5,1354,531.1,1339.8,517.7z M1321.7,652.6c11.2,3.4,22.5,6.2,34.4,6.5
		s23.6-1,35.2-3.2C1368.2,650.6,1345.1,647.4,1321.7,652.6z M1377.1,599.4c19.2-14.2,28.4-40.3,21.8-59.3c-0.4,0.9-0.9,1.4-0.9,1.9
		c0.1,6.4-2.1,12.2-4.6,17.9c-3.1,6.9-6,13.9-8.8,20.8C1382,586.9,1379.6,593,1377.1,599.4z M1298.1,591.7
		c19.8,8.3,40.1,14,61.9,13.8C1340.8,593.7,1320,589.9,1298.1,591.7z M1400.9,679.7c-1-0.3-1.6-0.5-2.2-0.6
		c-3.8-0.4-7.7-0.8-11.5-1.1c-3.7-0.3-7.4-0.5-11-0.7c-2.9-0.1-5.9-0.4-8.9-0.2c-3.9,0.2-7.7,0.9-11.6,1.3c-1.6,0.2-3.2,0-4.7,0.2
		c-1.8,0.3-3.6,0.9-5.4,1.5c-1.3,0.5-2.6,1.2-4.2,2C1350.6,685.7,1390.7,684,1400.9,679.7z M1312.2,625.4c0,0.5,0.1,0.9,0.1,1.4
		c3.7,0.5,7.4,1.1,11.2,1.5c4.9,0.5,9.8,1.1,14.8,1.1c6.1,0,12.1-0.5,18.2-0.9c2.2-0.1,4.5-0.2,6.7-0.5c1.2-0.2,2.4-0.8,3.6-1.1
		c-1-0.8-1.9-1-2.7-1.1c-2.9-0.6-5.9-1.4-8.9-1.8c-2.9-0.4-5.9,0.1-8.6-0.5c-7.2-1.7-14.4-1.1-21.6-0.9c-1,0-1.9,0.8-2.9,1
		C1318.8,624.2,1315.5,624.8,1312.2,625.4z M1342.1,685c6.6,9,46.2,8,58.2-2.2C1381,686.6,1361.5,686.8,1342.1,685z M1296.2,593.9
		c0,0.1,0,0.2,0,0.3c1.3,0.9,2.5,1.9,3.8,2.7c2.9,1.9,5.7,4.2,8.9,5.6c6.7,3,13.4,5.8,21.1,5.6c6-0.1,12.1,0.4,18.1,0.6
		c1.1,0,2.2,0,3.4,0c0-0.3,0-0.6,0.1-0.9c-4.8-0.4-9.6-0.4-14.4-1.2c-4.6-0.8-9.3-0.9-13.7-2.5c-4.5-1.6-9-3.3-13.6-5
		C1305.4,597.4,1300.8,595.7,1296.2,593.9z M1317,630.6c17.1,8,34.1,5.2,51.1-0.3C1351.1,632,1334.1,632.5,1317,630.6z
		 M1329.2,658.1c0,0.3,0,0.5-0.1,0.8c17.4,8.3,35.4,6.4,54.1,2.7c-0.7-0.6-0.9-1-1.2-1c-2.9,0.1-5.8,0.2-8.6,0.4
		c-3.2,0.2-6.5,0.4-9.7,0.7c-1.9,0.2-3.8,0.7-5.6,0.6c-3-0.1-6-0.5-9-0.8c-2.9-0.3-5.9-0.5-8.8-1.1
		C1336.5,659.9,1332.9,658.9,1329.2,658.1z M1380.4,583.5c5-12.2,10-24.4,15-36.6c-0.4-0.2-0.8-0.3-1.2-0.5
		C1388.1,558.1,1382.6,570.1,1380.4,583.5z"/>
</g>
<g id="brandgreen_x5F_logo">
	<path class="st9" d="M430.1,1013.8"/>
	<rect x="260.9" y="523.5" class="st3" width="1143.8" height="457.7"/>
	<text transform="matrix(0.9985 0 0 1 260.916 674.4725)" class="st8 st4 st5">ЕСМУ</text>
	<path class="st8" d="M258.8,633.9c-2.2-3.2-4.2-6.1-6.2-9.1c-2.2-3.2-4.3-6.5-6.5-9.6c-0.3-0.5-1.5-0.9-1.9-0.7
		c-5.4,3-11.3,4.2-17.3,5c-6.6,0.9-13.2,1.4-19.9,1.8c-4.1,0.3-8.3,0.4-12.4,0.1c-5.1-0.4-10-1.9-14.3-4.8c-2.3-1.5-4.4-3.3-6.4-5.1
		c-2.1-2-1.5-5.2,1.4-5.5c3.5-0.5,6.4-2.6,10.1-2.7c4.5-0.1,8.9-1.5,13.4-2.2c1.8-0.3,3.6-0.1,5.4,0.1c3.6,0.3,7.2,0.7,10.8,1
		c3.6,0.4,7.3,0.6,10.9,1.1c2.5,0.4,5,1.1,7.4,1.7c1.4,0.3,2.7,0.6,4.1,0.9c1.1,0.3,2.2,0.5,3.8,0.9c-0.3-1-0.4-1.9-0.8-2.6
		c-1.9-3.4-3.9-6.6-5.7-10c-1-2-2.1-0.9-3.2-0.4c-1.2,0.5-2.4,1.2-3.6,1.3c-3.3,0.3-6.6,0.5-9.9,0.6c-5.2,0.2-10.3,0.5-15.5,0.4
		c-6.3-0.2-12.5-1-18.5-3.1c-2.7-1-5.6-1.5-8.3-2.5c-1.3-0.5-2.3-1.8-3.5-2.6c-1.3-1-2.8-1.8-4.1-2.9c-3.4-2.8-7-5.6-8.3-10
		c-0.8-2.7,0.8-4.3,4.2-4.9c1.1-0.2,2.2-0.4,3.2-0.4c3.4,0.1,6.8,0.2,10.2,0.3c2.2,0.1,4.5,0.1,6.7,0.3c3,0.3,6.1,0.7,9.1,1.2
		c4,0.7,8,1.2,11.9,2.3c8.5,2.4,16.6,5.8,24.1,10.5c1.1,0.7,2.2,1.2,3.6,2c0.1-3.1-2.1-4.2-3.9-5.6c-3.6-2.7-7.5-5-10.7-8.1
		c-4.7-4.5-8.8-9.8-11.8-15.5c-3.1-6-5.9-12.3-6.7-19.2c-0.2-1.7-0.9-3.3-0.8-4.9c0.4-4.4-1.3-8.7-0.7-13c0.4-3.3,0.9-6.6,1.3-9.9
		c0.2-1.7,0.3-3.4,0.6-5c0.5-3,2.4-5.2,4.5-7.2c1.7-1.6,3.5-1.2,5.4,0.3c3.4,2.6,5.8,6,7.8,9.6c2.6,4.5,4.9,9.2,7.3,13.8
		c2.3,4.5,4.8,8.9,6.7,13.5c1.5,3.7,2.1,7.7,3.2,11.5c0.4,1.2,1.3,2.4,1.4,3.7c0.4,5.2,2.2,10.3,2,15.6c-0.2,4.1-0.1,8.2,0,12.2
		c0,1.1,0.2,2.3,0.4,3.4c0.4,0,0.8,0,1.2,0c0.8-5.4,1.4-10.8,2.4-16c1-4.7,2.2-9.4,4-13.9c2.6-6.7,5.3-13.3,8.7-19.7
		c2.4-4.5,5.6-8.7,8.9-12.6c1.9-2.3,4.6-1.2,5.7,1.5c1.1,2.8,2.4,5.4,3.6,8.2c0.1,0.2,0,0.5-0.1,0.8c-1.1,3.1,0.5,6.4,0,9.4
		c-0.9,5.5-2.3,10.9-3.8,16.2c-1.9,7.2-6.2,13.2-11,18.7c-4,4.6-8.7,8.4-13.2,12.5c-2.2,2-2.4,5.9-0.8,8.4c1.7,2.5,2.9,5.4,4.4,8.1
		c0.4,0.7,0.9,1.3,1.3,1.7c2.4-6,5-11.8,7.3-17.8c3.3-8.6,8.4-16,14.2-23.1c1.6-1.9,3.4-3.6,5.4-5.6c1.2,5.2,0.2,9.5-3.1,13.5
		c-2.9,3.5-5.2,7.4-7.7,11.1c-1.8,2.8-3.4,5.6-5.1,8.5c-0.4,0.7-0.6,1.6-0.9,2.4c0.2,0.1,0.4,0.2,0.6,0.4c5.3-7.5,10.7-15,16.2-22.8
		c1.1,3.6-0.6,5.8-2.5,7.9c-1.3,1.4-2.2,3.1-3.3,4.7c-1.1,1.6-2.3,3.2-3.4,4.9c-1.9,2.8-3.8,5.6-5.8,8.4c-1.3,1.9-2.8,3.7-3.8,6
		c6.3-5.2,12.6-10.4,18.9-15.6c1,2.5-0.3,4.4-2.5,6c-4.1,3.1-8.4,6.1-12.4,9.4c-3,2.5-5.7,5.3-8.7,8.2c1.8,6.8,7.5,11.6,11,17.9
		c1.7-4.7,3.1-9.3,5.1-13.6s4.6-8.4,7-12.9c1.2,2.8,0.9,7.4-0.5,9.4c-3.6,5.1-4.8,11.2-6.4,17c-0.1,0.3,0.1,0.6,0.2,1.3
		c2.5-3.1,4.8-5.9,7.1-8.8c0.2,0.1,0.5,0.2,0.8,0.2c-0.7,2.4-1.5,4.9-2.1,7.2c0.2-0.1,0.8-0.3,1.4-0.5c0.8,2.8-0.3,4.3-2.8,5.4
		c-3.3,1.4-4.8,5.2-3.2,8.3c1.2,2.5,2.8,4.8,4.6,6.9c2,2.2,1.7,4.6,1.4,7.7c-2.4-3.9-4.4-7.2-6.5-10.6c-1-1.6-1.9-3.2-2.9-4.8
		c-0.5-0.7-0.4-2.6-1.9-1.4c-0.6,0.5-0.8,2.2-0.4,2.9c0.8,1.3,2.3,2.2,3.2,3.4c1,1.3,1.6,2.8,2.4,4.2c1.9,3.3,4.1,6.5,5.7,9.9
		c0.8,1.6,0.5,3.7,0.7,5.1c-1.7,0.7-3.2,0.9-4.3,1.7c-4.7,3.1-9.8,5.5-15.2,7.1c-2.8,0.8-5.5,2.4-8.4,2.9
		c-8.1,1.4-16.3,2.7-24.6,1.1c-3.3-0.6-6.6-1.5-9.6-2.9c-4.2-2-7.9-4.7-10.2-9c-0.9-1.8-0.2-3.1,1.1-3.7c3.2-1.5,6.4-2.9,9.9-3.7
		c5.2-1.2,10.5-1.9,15.8-2.6c3.5-0.4,7-0.6,10.6-0.5c6.3,0.2,12.6,0.8,18.9,1.2c3.6,0.2,7.1,0.5,11,0.9c-1.1-1.5-2.1-3-3.1-4.4
		c-2.1-3-4.3-6-6.1-9.2c-1-1.7-2.1-1.3-3.3-0.7c-2,1-3.9,2.5-6,3.2c-3,1-6.1,1.7-9.2,2.2c-3.9,0.7-7.8,1.2-11.8,1.7
		c-6.9,0.9-13.9,1.2-20.8-0.1c-3.7-0.7-7.4-1.4-11-2.6c-3.1-1-6.1-2.6-8.9-4.2c-2.2-1.3-4.2-3.1-5-5.7c-0.5-1.7-2.9-3.6-1.1-5
		c2-1.6,4.8-2.6,7.4-2.9c6.7-0.9,13.5-1.4,20.3-1.7c4.4-0.2,8.8,0.2,13.2,0.6c5.5,0.5,11,0.9,16.4,1.8
		C248.3,631.4,253.4,632.7,258.8,633.9z M253.6,619.7c0.3,0.8,0.4,1.8,0.9,2.4c2.3,3.3,4.7,6.6,7.1,9.9c0.8,1,1.3,2.2,2.1,3.3
		c0.8,1,1.6,1.9,2.9,3.4c0-1.2,0.2-1.8-0.1-2.1c-3.4-3.9-6.4-8-8.9-12.7C256.8,622.3,254.9,621.1,253.6,619.7
		c-0.9-2.5-1.7-4.9-2.4-7.5c-0.3-1-0.3-2-0.5-3.2c-0.1,0-1,0.2-1.3-0.2c-1.1-1.3-2.2-2.8-3.1-4.3c-1.5-2.6-2.5-5.6-4.3-7.9
		c-1.6-2.1-2.4-4.1-1.7-6.6s-0.8-3.4-2.7-4.2c-0.3,1.3-0.6,2.5-0.8,3.6c-0.1,0.8-0.4,1.9,0,2.5c1.8,3,3.8,6,5.7,9
		c0.7,1.1,1.3,2.2,1.9,3.3c1.3,2.2,2.6,4.3,3.8,6.6c0.2,0.3-0.7,1.2-1.1,1.8C249.2,614.9,251.4,617.3,253.6,619.7z M232.8,579.5
		c-3.4-8.9-6.5-17.2-9.6-25.4c-3.2-8.5-6.9-16.8-9.5-25.4c-2.6-8.7-6.1-17-8.1-26.5C200.6,533,208.1,558.9,232.8,579.5z
		 M207.6,499.4c6.3,25.7,16.9,49.9,26.2,74.7C237.3,555.3,221.9,512.8,207.6,499.4z M189.5,634.3c11.2,3.4,22.5,6.2,34.4,6.5
		s23.6-1,35.2-3.2C236,632.3,212.9,629.1,189.5,634.3z M244.9,581.2c19.2-14.2,28.4-40.3,21.8-59.3c-0.4,0.9-0.9,1.4-0.9,1.9
		c0.1,6.4-2.1,12.2-4.6,17.9c-3.1,6.9-6,13.9-8.8,20.8C249.8,568.7,247.5,574.8,244.9,581.2z M165.9,573.4
		c19.8,8.3,40.1,14,61.9,13.8C208.6,575.5,187.8,571.6,165.9,573.4z M268.8,661.4c-1-0.3-1.6-0.5-2.2-0.6c-3.8-0.4-7.7-0.8-11.5-1.1
		c-3.7-0.3-7.4-0.5-11-0.7c-2.9-0.1-5.9-0.4-8.9-0.2c-3.9,0.2-7.7,0.9-11.6,1.3c-1.6,0.2-3.2,0-4.7,0.2c-1.8,0.3-3.6,0.9-5.4,1.5
		c-1.3,0.5-2.6,1.2-4.2,2C218.4,667.5,258.6,665.8,268.8,661.4z M180,607.1c0,0.5,0.1,0.9,0.1,1.4c3.7,0.5,7.4,1.1,11.2,1.5
		c4.9,0.5,9.8,1.1,14.8,1.1c6.1,0,12.1-0.5,18.2-0.9c2.2-0.1,4.5-0.2,6.7-0.5c1.2-0.2,2.4-0.8,3.6-1.1c-1-0.8-1.9-1-2.7-1.1
		c-2.9-0.6-5.9-1.4-8.9-1.8c-2.9-0.4-5.9,0.1-8.6-0.5c-7.2-1.7-14.4-1.1-21.6-0.9c-1,0-1.9,0.8-2.9,1
		C186.6,605.9,183.3,606.5,180,607.1z M210,666.7c6.6,9,46.2,8,58.2-2.2C248.8,668.3,229.3,668.6,210,666.7z M164,575.7
		c0,0.1,0,0.2,0,0.3c1.3,0.9,2.5,1.9,3.8,2.7c2.9,1.9,5.7,4.2,8.9,5.6c6.7,3,13.4,5.8,21.1,5.6c6-0.1,12.1,0.4,18.1,0.6
		c1.1,0,2.2,0,3.4,0c0-0.3,0-0.6,0.1-0.9c-4.8-0.4-9.6-0.4-14.4-1.2c-4.6-0.8-9.3-0.9-13.7-2.5c-4.5-1.6-9-3.3-13.6-5
		C173.2,579.1,168.6,577.4,164,575.7z M184.9,612.3c17.1,8,34.1,5.2,51.1-0.3C218.9,613.8,201.9,614.3,184.9,612.3z M197,639.8
		c0,0.3,0,0.5-0.1,0.8c17.4,8.3,35.4,6.4,54.1,2.7c-0.7-0.6-0.9-1-1.2-1c-2.9,0.1-5.8,0.2-8.6,0.4c-3.2,0.2-6.5,0.4-9.7,0.7
		c-1.9,0.2-3.8,0.7-5.6,0.6c-3-0.1-6-0.5-9-0.8c-2.9-0.3-5.9-0.5-8.8-1.1C204.3,641.6,200.7,640.7,197,639.8z M248.3,565.2
		c5-12.2,10-24.4,15-36.6c-0.4-0.2-0.8-0.3-1.2-0.5C255.9,539.9,250.4,551.9,248.3,565.2z"/>
	<text transform="matrix(0.9985 0 0 1 666.0136 752.2782)" class="st8 st4 st6">Ми є.</text>
</g>
<g id="eng_x5F_brandgreen">
	<path class="st8" d="M678.3,1896.1"/>
	<path class="st9" d="M442.2,2214.8"/>
	<rect x="273.1" y="1724.5" class="st3" width="1143.8" height="457.7"/>
	<text transform="matrix(0.9985 0 0 1 273.061 1875.5184)" class="st8 st4 st5">ESMU</text>
	<path class="st8" d="M270.9,1834.9c-2.2-3.2-4.2-6.1-6.2-9.1c-2.2-3.2-4.3-6.5-6.5-9.6c-0.3-0.5-1.5-0.9-1.9-0.7
		c-5.4,3-11.3,4.2-17.3,5c-6.6,0.9-13.2,1.4-19.9,1.8c-4.1,0.3-8.3,0.4-12.4,0.1c-5.1-0.4-10-1.9-14.3-4.8c-2.3-1.5-4.4-3.3-6.4-5.1
		c-2.1-2-1.5-5.2,1.4-5.5c3.5-0.4,6.4-2.6,10.1-2.7c4.5-0.1,8.9-1.5,13.4-2.2c1.8-0.3,3.6-0.1,5.4,0.1c3.6,0.3,7.2,0.7,10.8,1
		s7.3,0.6,10.9,1.1c2.5,0.4,5,1.1,7.4,1.7c1.4,0.3,2.7,0.6,4.1,0.9c1.1,0.3,2.2,0.5,3.8,0.9c-0.3-1-0.4-1.9-0.8-2.6
		c-1.9-3.3-3.9-6.6-5.7-10c-1-2-2.1-0.9-3.2-0.4c-1.2,0.5-2.4,1.2-3.6,1.3c-3.3,0.3-6.6,0.4-9.9,0.6c-5.2,0.2-10.3,0.5-15.5,0.3
		c-6.3-0.2-12.5-1-18.5-3.1c-2.7-1-5.6-1.5-8.3-2.5c-1.3-0.5-2.3-1.8-3.5-2.6c-1.3-1-2.8-1.8-4.1-2.8c-3.4-2.8-7-5.6-8.3-10
		c-0.8-2.7,0.8-4.3,4.2-4.8c1.1-0.2,2.2-0.4,3.2-0.4c3.4,0.1,6.8,0.2,10.2,0.3c2.2,0.1,4.5,0.1,6.7,0.3c3,0.3,6.1,0.7,9.1,1.2
		c4,0.7,8,1.2,11.9,2.3c8.5,2.4,16.6,5.8,24.1,10.5c1.1,0.7,2.2,1.2,3.6,2c0.1-3.2-2.1-4.2-3.9-5.6c-3.6-2.7-7.5-5-10.7-8.1
		c-4.7-4.6-8.8-9.8-11.8-15.5c-3.1-6-5.9-12.3-6.7-19.2c-0.2-1.7-0.9-3.3-0.8-4.9c0.4-4.4-1.3-8.7-0.7-13c0.4-3.3,0.9-6.6,1.3-9.9
		c0.2-1.7,0.3-3.4,0.6-5c0.5-3,2.4-5.2,4.5-7.2c1.7-1.6,3.5-1.2,5.4,0.3c3.4,2.6,5.8,6,7.8,9.6c2.6,4.5,4.9,9.2,7.3,13.8
		c2.3,4.5,4.8,8.8,6.7,13.5c1.5,3.7,2.1,7.7,3.2,11.5c0.4,1.2,1.3,2.4,1.4,3.7c0.4,5.2,2.2,10.3,2,15.6c-0.2,4.1-0.1,8.2,0,12.2
		c0,1.1,0.2,2.3,0.4,3.4c0.4,0,0.8,0,1.2,0c0.8-5.3,1.4-10.8,2.4-16c1-4.7,2.2-9.4,4-13.9c2.6-6.7,5.3-13.3,8.7-19.7
		c2.4-4.5,5.6-8.7,8.9-12.7c1.9-2.3,4.6-1.2,5.7,1.6c1.1,2.8,2.4,5.4,3.6,8.2c0.1,0.2,0,0.5-0.1,0.8c-1.1,3.2,0.5,6.4,0,9.4
		c-0.9,5.5-2.3,10.8-3.8,16.2c-1.9,7.2-6.2,13.2-11,18.7c-4,4.6-8.7,8.4-13.2,12.6c-2.2,2.1-2.4,5.9-0.8,8.3
		c1.7,2.5,2.9,5.4,4.4,8.1c0.4,0.7,0.9,1.2,1.3,1.7c2.4-6,5-11.8,7.3-17.8c3.3-8.6,8.4-16.1,14.2-23.1c1.6-1.9,3.4-3.6,5.4-5.6
		c1.2,5.2,0.2,9.5-3.1,13.5c-2.9,3.5-5.2,7.4-7.7,11.2c-1.8,2.8-3.4,5.6-5.1,8.5c-0.4,0.7-0.6,1.6-0.9,2.4c0.2,0.1,0.4,0.2,0.6,0.4
		c5.3-7.5,10.7-15.1,16.2-22.8c1.1,3.6-0.6,5.8-2.5,7.9c-1.3,1.4-2.2,3.1-3.3,4.7s-2.3,3.2-3.4,4.9c-1.9,2.8-3.8,5.7-5.8,8.4
		c-1.3,1.9-2.8,3.7-3.8,6c6.3-5.2,12.6-10.4,18.9-15.6c1,2.5-0.3,4.4-2.5,6.1c-4.1,3.1-8.4,6.1-12.4,9.4c-3,2.5-5.7,5.3-8.7,8.2
		c1.8,6.8,7.5,11.6,11,17.9c1.7-4.7,3.1-9.3,5.1-13.6c2-4.3,4.6-8.4,7-12.8c1.2,2.8,0.9,7.4-0.5,9.4c-3.6,5.1-4.8,11.2-6.4,17
		c-0.1,0.3,0.1,0.6,0.2,1.3c2.5-3.1,4.8-5.9,7.1-8.8c0.2,0.1,0.5,0.2,0.8,0.2c-0.7,2.4-1.5,4.9-2.1,7.2c0.2-0.1,0.8-0.3,1.4-0.5
		c0.8,2.8-0.3,4.3-2.8,5.4c-3.3,1.4-4.8,5.2-3.2,8.3c1.2,2.4,2.8,4.8,4.6,6.9c2,2.2,1.7,4.6,1.4,7.7c-2.4-3.9-4.4-7.2-6.5-10.6
		c-1-1.6-1.9-3.2-2.9-4.8c-0.5-0.7-0.4-2.6-1.9-1.4c-0.6,0.5-0.8,2.2-0.4,2.9c0.8,1.3,2.3,2.2,3.2,3.4c1,1.3,1.6,2.8,2.4,4.2
		c1.9,3.3,4.1,6.5,5.7,9.9c0.8,1.6,0.5,3.7,0.7,5.1c-1.7,0.7-3.2,0.9-4.3,1.7c-4.7,3.1-9.8,5.5-15.2,7.1c-2.8,0.8-5.5,2.4-8.4,2.9
		c-8.1,1.4-16.3,2.7-24.6,1.1c-3.3-0.6-6.6-1.5-9.6-2.9c-4.2-2-7.9-4.7-10.2-9c-0.9-1.8-0.2-3.1,1.1-3.7c3.2-1.5,6.4-2.9,9.9-3.7
		c5.2-1.2,10.5-1.9,15.8-2.6c3.5-0.4,7-0.6,10.6-0.5c6.3,0.2,12.6,0.8,18.9,1.2c3.6,0.2,7.1,0.6,11,0.9c-1.1-1.6-2.1-3-3.1-4.4
		c-2.1-3.1-4.3-6.1-6.1-9.2c-1-1.7-2.1-1.3-3.3-0.7c-2,1-3.9,2.5-6,3.2c-3,1-6.1,1.7-9.2,2.2c-3.9,0.7-7.8,1.2-11.8,1.7
		c-6.9,0.9-13.9,1.2-20.8-0.1c-3.7-0.7-7.4-1.4-11-2.6c-3.1-1.1-6.1-2.6-8.9-4.2c-2.2-1.3-4.2-3.1-5-5.7c-0.5-1.7-2.9-3.6-1.1-5
		c2-1.6,4.8-2.6,7.4-2.9c6.7-0.9,13.5-1.4,20.3-1.7c4.4-0.2,8.8,0.2,13.2,0.6c5.5,0.4,11,0.9,16.4,1.8
		C260.5,1832.4,265.6,1833.8,270.9,1834.9z M265.7,1820.7c0.3,0.8,0.4,1.8,0.9,2.4c2.3,3.3,4.7,6.6,7.1,9.9c0.8,1.1,1.3,2.2,2.1,3.3
		c0.8,1,1.6,1.9,2.9,3.4c0-1.2,0.2-1.8-0.1-2.1c-3.4-3.9-6.4-8.1-8.9-12.7C268.9,1823.3,267.1,1822.2,265.7,1820.7
		c-0.9-2.4-1.7-4.9-2.4-7.5c-0.3-1-0.3-2-0.5-3.2c-0.1,0-1,0.2-1.3-0.2c-1.1-1.3-2.2-2.8-3.1-4.3c-1.5-2.6-2.5-5.6-4.3-7.9
		c-1.6-2.1-2.4-4.1-1.7-6.6c0.7-2.4-0.8-3.4-2.7-4.2c-0.3,1.3-0.6,2.5-0.8,3.6c-0.1,0.8-0.4,1.9,0,2.5c1.8,3.1,3.8,6,5.7,9
		c0.7,1.1,1.3,2.2,1.9,3.3c1.3,2.2,2.6,4.3,3.8,6.6c0.2,0.3-0.7,1.2-1.1,1.8C261.4,1816,263.6,1818.4,265.7,1820.7z M244.9,1780.5
		c-3.4-8.9-6.5-17.2-9.6-25.4c-3.2-8.5-6.9-16.8-9.5-25.4c-2.6-8.7-6.1-17-8.1-26.6C212.8,1734,220.3,1760,244.9,1780.5z
		 M219.7,1700.5c6.3,25.7,16.9,49.9,26.2,74.7C249.5,1756.3,234,1713.9,219.7,1700.5z M201.6,1835.4c11.2,3.4,22.5,6.2,34.4,6.5
		s23.6-1,35.2-3.2C248.2,1833.4,225.1,1830.1,201.6,1835.4z M257.1,1782.2c19.2-14.2,28.4-40.3,21.8-59.3c-0.4,0.9-0.9,1.4-0.9,1.9
		c0.1,6.4-2.1,12.2-4.6,17.9c-3.1,6.9-6,13.8-8.8,20.8C262,1769.7,259.6,1775.8,257.1,1782.2z M178.1,1774.5
		c19.8,8.3,40.1,13.9,61.9,13.8C220.7,1776.5,200,1772.7,178.1,1774.5z M280.9,1862.5c-1-0.3-1.6-0.5-2.2-0.6
		c-3.8-0.4-7.7-0.8-11.5-1.1c-3.7-0.3-7.4-0.5-11-0.7c-2.9-0.1-5.9-0.4-8.9-0.2c-3.9,0.2-7.7,0.9-11.6,1.3c-1.6,0.2-3.2,0-4.7,0.2
		c-1.8,0.3-3.6,0.9-5.4,1.5c-1.3,0.5-2.6,1.2-4.2,2C230.6,1868.5,270.7,1866.8,280.9,1862.5z M192.2,1808.1c0,0.5,0.1,0.9,0.1,1.4
		c3.7,0.5,7.4,1.1,11.2,1.5c4.9,0.5,9.8,1.1,14.8,1.1c6.1,0,12.1-0.5,18.2-0.9c2.2-0.1,4.5-0.2,6.7-0.5c1.2-0.2,2.4-0.8,3.6-1.1
		c-1-0.8-1.9-0.9-2.7-1.1c-2.9-0.6-5.9-1.4-8.9-1.8c-2.9-0.4-5.9,0.1-8.6-0.5c-7.2-1.7-14.4-1.1-21.6-0.9c-1,0-1.9,0.8-2.9,1
		C198.7,1807,195.4,1807.5,192.2,1808.1z M222.1,1867.8c6.6,9,46.2,7.9,58.2-2.2C260.9,1869.4,241.5,1869.6,222.1,1867.8z
		 M176.2,1776.7c0,0.1,0,0.2,0,0.3c1.3,0.9,2.5,1.8,3.8,2.7c2.9,1.9,5.7,4.2,8.9,5.6c6.7,3,13.4,5.8,21.1,5.6
		c6-0.1,12.1,0.4,18.1,0.6c1.1,0,2.2,0,3.4,0c0-0.3,0-0.6,0.1-0.9c-4.8-0.4-9.6-0.4-14.4-1.2c-4.6-0.8-9.3-0.9-13.7-2.5
		c-4.5-1.6-9-3.3-13.6-5S180.8,1778.4,176.2,1776.7z M197,1813.4c17.1,8,34.1,5.2,51.1-0.3C231.1,1814.8,214.1,1815.3,197,1813.4z
		 M209.1,1840.9c0,0.3,0,0.5-0.1,0.8c17.4,8.3,35.4,6.4,54.1,2.7c-0.7-0.6-0.9-1-1.2-1c-2.9,0.1-5.8,0.2-8.6,0.4
		c-3.2,0.2-6.5,0.4-9.7,0.7c-1.9,0.2-3.8,0.7-5.6,0.6c-3-0.1-6-0.5-9-0.8c-2.9-0.3-5.9-0.5-8.8-1.1
		C216.5,1842.7,212.8,1841.7,209.1,1840.9z M260.4,1766.3c5-12.2,10-24.4,15-36.6c-0.4-0.2-0.8-0.3-1.2-0.5
		C268,1740.9,262.6,1752.9,260.4,1766.3z"/>
	<text transform="matrix(0.9985 0 0 1 596.7319 1953.3241)" class="st8 st4 st6">We are.</text>
</g>
<g id="eng_x5F_bluelogo">
	<path class="st8" d="M1797.8,1881.7"/>
	<rect x="1392.6" y="1710.1" class="st3" width="1143.8" height="457.7"/>
	<text transform="matrix(0.9985 0 0 1 1392.5771 1861.0702)" class="st7 st4 st5">ESMU</text>
	<path class="st10" d="M1390.4,1820.5c-2.2-3.2-4.2-6.1-6.2-9.1c-2.2-3.2-4.3-6.5-6.5-9.6c-0.3-0.5-1.5-0.9-1.9-0.7
		c-5.4,3-11.3,4.2-17.3,5c-6.6,0.9-13.2,1.4-19.9,1.8c-4.1,0.3-8.3,0.4-12.4,0.1c-5.1-0.4-10-1.9-14.3-4.8c-2.3-1.5-4.4-3.3-6.4-5.1
		c-2.1-2-1.5-5.2,1.4-5.5c3.5-0.4,6.4-2.6,10.1-2.7c4.5-0.1,8.9-1.5,13.4-2.2c1.8-0.3,3.6-0.1,5.4,0.1c3.6,0.3,7.2,0.7,10.8,1
		s7.3,0.6,10.9,1.1c2.5,0.4,5,1.1,7.4,1.7c1.4,0.3,2.7,0.6,4.1,0.9c1.1,0.3,2.2,0.5,3.8,0.9c-0.3-1-0.4-1.9-0.8-2.6
		c-1.9-3.3-3.9-6.6-5.7-10c-1-2-2.1-0.9-3.2-0.4c-1.2,0.5-2.4,1.2-3.6,1.3c-3.3,0.3-6.6,0.4-9.9,0.6c-5.2,0.2-10.3,0.5-15.5,0.3
		c-6.3-0.2-12.5-1-18.5-3.1c-2.7-1-5.6-1.5-8.3-2.5c-1.3-0.5-2.3-1.8-3.5-2.6c-1.3-1-2.8-1.8-4.1-2.8c-3.4-2.8-7-5.6-8.3-10
		c-0.8-2.7,0.8-4.3,4.2-4.8c1.1-0.2,2.2-0.4,3.2-0.4c3.4,0.1,6.8,0.2,10.2,0.3c2.2,0.1,4.5,0.1,6.7,0.3c3,0.3,6.1,0.7,9.1,1.2
		c4,0.7,8,1.2,11.9,2.3c8.5,2.4,16.6,5.8,24.1,10.5c1.1,0.7,2.2,1.2,3.6,2c0.1-3.2-2.1-4.2-3.9-5.6c-3.6-2.7-7.5-5-10.7-8.1
		c-4.7-4.6-8.8-9.8-11.8-15.5c-3.1-6-5.9-12.3-6.7-19.2c-0.2-1.7-0.9-3.3-0.8-4.9c0.4-4.4-1.3-8.7-0.7-13c0.4-3.3,0.9-6.6,1.3-9.9
		c0.2-1.7,0.3-3.4,0.6-5c0.5-3,2.4-5.2,4.5-7.2c1.7-1.6,3.5-1.2,5.4,0.3c3.4,2.6,5.8,6,7.8,9.6c2.6,4.5,4.9,9.2,7.3,13.8
		c2.3,4.5,4.8,8.8,6.7,13.5c1.5,3.7,2.1,7.7,3.2,11.5c0.4,1.2,1.3,2.4,1.4,3.7c0.4,5.2,2.2,10.3,2,15.6c-0.2,4.1-0.1,8.2,0,12.2
		c0,1.1,0.2,2.3,0.4,3.4c0.4,0,0.8,0,1.2,0c0.8-5.3,1.4-10.8,2.4-16c1-4.7,2.2-9.4,4-13.9c2.6-6.7,5.3-13.3,8.7-19.7
		c2.4-4.5,5.6-8.7,8.9-12.7c1.9-2.3,4.6-1.2,5.7,1.6c1.1,2.8,2.4,5.4,3.6,8.2c0.1,0.2,0,0.5-0.1,0.8c-1.1,3.2,0.5,6.4,0,9.4
		c-0.9,5.5-2.3,10.8-3.8,16.2c-1.9,7.2-6.2,13.2-11,18.7c-4,4.6-8.7,8.4-13.2,12.6c-2.2,2.1-2.4,5.9-0.8,8.3
		c1.7,2.5,2.9,5.4,4.4,8.1c0.4,0.7,0.9,1.2,1.3,1.7c2.4-6,5-11.8,7.3-17.8c3.3-8.6,8.4-16.1,14.2-23.1c1.6-1.9,3.4-3.6,5.4-5.6
		c1.2,5.2,0.2,9.5-3.1,13.5c-2.9,3.5-5.2,7.4-7.7,11.2c-1.8,2.8-3.4,5.6-5.1,8.5c-0.4,0.7-0.6,1.6-0.9,2.4c0.2,0.1,0.4,0.2,0.6,0.4
		c5.3-7.5,10.7-15.1,16.2-22.8c1.1,3.6-0.6,5.8-2.5,7.9c-1.3,1.4-2.2,3.1-3.3,4.7s-2.3,3.2-3.4,4.9c-1.9,2.8-3.8,5.7-5.8,8.4
		c-1.3,1.9-2.8,3.7-3.8,6c6.3-5.2,12.6-10.4,18.9-15.6c1,2.5-0.3,4.4-2.5,6.1c-4.1,3.1-8.4,6.1-12.4,9.4c-3,2.5-5.7,5.3-8.7,8.2
		c1.8,6.8,7.5,11.6,11,17.9c1.7-4.7,3.1-9.3,5.1-13.6c2-4.3,4.6-8.4,7-12.8c1.2,2.8,0.9,7.4-0.5,9.4c-3.6,5.1-4.8,11.2-6.4,17
		c-0.1,0.3,0.1,0.6,0.2,1.3c2.5-3.1,4.8-5.9,7.1-8.8c0.2,0.1,0.5,0.2,0.8,0.2c-0.7,2.4-1.5,4.9-2.1,7.2c0.2-0.1,0.8-0.3,1.4-0.5
		c0.8,2.8-0.3,4.3-2.8,5.4c-3.3,1.4-4.8,5.2-3.2,8.3c1.2,2.4,2.8,4.8,4.6,6.9c2,2.2,1.7,4.6,1.4,7.7c-2.4-3.9-4.4-7.2-6.5-10.6
		c-1-1.6-1.9-3.2-2.9-4.8c-0.5-0.7-0.4-2.6-1.9-1.4c-0.6,0.5-0.8,2.2-0.4,2.9c0.8,1.3,2.3,2.2,3.2,3.4c1,1.3,1.6,2.8,2.4,4.2
		c1.9,3.3,4.1,6.5,5.7,9.9c0.8,1.6,0.5,3.7,0.7,5.1c-1.7,0.7-3.2,0.9-4.3,1.7c-4.7,3.1-9.8,5.5-15.2,7.1c-2.8,0.8-5.5,2.4-8.4,2.9
		c-8.1,1.4-16.3,2.7-24.6,1.1c-3.3-0.6-6.6-1.5-9.6-2.9c-4.2-2-7.9-4.7-10.2-9c-0.9-1.8-0.2-3.1,1.1-3.7c3.2-1.5,6.4-2.9,9.9-3.7
		c5.2-1.2,10.5-1.9,15.8-2.6c3.5-0.4,7-0.6,10.6-0.5c6.3,0.2,12.6,0.8,18.9,1.2c3.6,0.2,7.1,0.6,11,0.9c-1.1-1.6-2.1-3-3.1-4.4
		c-2.1-3.1-4.3-6.1-6.1-9.2c-1-1.7-2.1-1.3-3.3-0.7c-2,1-3.9,2.5-6,3.2c-3,1-6.1,1.7-9.2,2.2c-3.9,0.7-7.8,1.2-11.8,1.7
		c-6.9,0.9-13.9,1.2-20.8-0.1c-3.7-0.7-7.4-1.4-11-2.6c-3.1-1.1-6.1-2.6-8.9-4.2c-2.2-1.3-4.2-3.1-5-5.7c-0.5-1.7-2.9-3.6-1.1-5
		c2-1.6,4.8-2.6,7.4-2.9c6.7-0.9,13.5-1.4,20.3-1.7c4.4-0.2,8.8,0.2,13.2,0.6c5.5,0.4,11,0.9,16.4,1.8
		C1380,1818,1385.1,1819.3,1390.4,1820.5z M1385.3,1806.3c0.3,0.8,0.4,1.8,0.9,2.4c2.3,3.3,4.7,6.6,7.1,9.9c0.8,1.1,1.3,2.2,2.1,3.3
		c0.8,1,1.6,1.9,2.9,3.4c0-1.2,0.2-1.8-0.1-2.1c-3.4-3.9-6.4-8.1-8.9-12.7C1388.4,1808.9,1386.6,1807.7,1385.3,1806.3
		c-0.9-2.4-1.7-4.9-2.4-7.5c-0.3-1-0.3-2-0.5-3.2c-0.1,0-1,0.2-1.3-0.2c-1.1-1.3-2.2-2.8-3.1-4.3c-1.5-2.6-2.5-5.6-4.3-7.9
		c-1.6-2.1-2.4-4.1-1.7-6.6c0.7-2.4-0.8-3.4-2.7-4.2c-0.3,1.3-0.6,2.5-0.8,3.6c-0.1,0.8-0.4,1.9,0,2.5c1.8,3.1,3.8,6,5.7,9
		c0.7,1.1,1.3,2.2,1.9,3.3c1.3,2.2,2.6,4.3,3.8,6.6c0.2,0.3-0.7,1.2-1.1,1.8C1380.9,1801.5,1383.1,1803.9,1385.3,1806.3z
		 M1364.4,1766.1c-3.4-8.9-6.5-17.2-9.6-25.4c-3.2-8.5-6.9-16.8-9.5-25.4c-2.6-8.7-6.1-17-8.1-26.6
		C1332.3,1719.6,1339.8,1745.5,1364.4,1766.1z M1339.3,1686c6.3,25.7,16.9,49.9,26.2,74.7C1369,1741.9,1353.5,1699.5,1339.3,1686z
		 M1321.1,1820.9c11.2,3.4,22.5,6.2,34.4,6.5s23.6-1,35.2-3.2C1367.7,1818.9,1344.6,1815.7,1321.1,1820.9z M1376.6,1767.8
		c19.2-14.2,28.4-40.3,21.8-59.3c-0.4,0.9-0.9,1.4-0.9,1.9c0.1,6.4-2.1,12.2-4.6,17.9c-3.1,6.9-6,13.8-8.8,20.8
		C1381.5,1755.2,1379.1,1761.4,1376.6,1767.8z M1297.6,1760c19.8,8.3,40.1,13.9,61.9,13.8C1340.3,1762.1,1319.5,1758.2,1297.6,1760z
		 M1400.4,1848c-1-0.3-1.6-0.5-2.2-0.6c-3.8-0.4-7.7-0.8-11.5-1.1c-3.7-0.3-7.4-0.5-11-0.7c-2.9-0.1-5.9-0.4-8.9-0.2
		c-3.9,0.2-7.7,0.9-11.6,1.3c-1.6,0.2-3.2,0-4.7,0.2c-1.8,0.3-3.6,0.9-5.4,1.5c-1.3,0.5-2.6,1.2-4.2,2
		C1350.1,1854.1,1390.2,1852.3,1400.4,1848z M1311.7,1793.7c0,0.5,0.1,0.9,0.1,1.4c3.7,0.5,7.4,1.1,11.2,1.5
		c4.9,0.5,9.8,1.1,14.8,1.1c6.1,0,12.1-0.5,18.2-0.9c2.2-0.1,4.5-0.2,6.7-0.5c1.2-0.2,2.4-0.8,3.6-1.1c-1-0.8-1.9-0.9-2.7-1.1
		c-2.9-0.6-5.9-1.4-8.9-1.8c-2.9-0.4-5.9,0.1-8.6-0.5c-7.2-1.7-14.4-1.1-21.6-0.9c-1,0-1.9,0.8-2.9,1
		C1318.2,1792.5,1315,1793.1,1311.7,1793.7z M1341.6,1853.3c6.6,9,46.2,7.9,58.2-2.2C1380.5,1854.9,1361,1855.2,1341.6,1853.3z
		 M1295.7,1762.3c0,0.1,0,0.2,0,0.3c1.3,0.9,2.5,1.8,3.8,2.7c2.9,1.9,5.7,4.2,8.9,5.6c6.7,3,13.4,5.8,21.1,5.6
		c6-0.1,12.1,0.4,18.1,0.6c1.1,0,2.2,0,3.4,0c0-0.3,0-0.6,0.1-0.9c-4.8-0.4-9.6-0.4-14.4-1.2c-4.6-0.8-9.3-0.9-13.7-2.5
		c-4.5-1.6-9-3.3-13.6-5C1304.9,1765.7,1300.3,1764,1295.7,1762.3z M1316.5,1799c17.1,8,34.1,5.2,51.1-0.3
		C1350.6,1800.4,1333.6,1800.9,1316.5,1799z M1328.6,1826.4c0,0.3,0,0.5-0.1,0.8c17.4,8.3,35.4,6.4,54.1,2.7c-0.7-0.6-0.9-1-1.2-1
		c-2.9,0.1-5.8,0.2-8.6,0.4c-3.2,0.2-6.5,0.4-9.7,0.7c-1.9,0.2-3.8,0.7-5.6,0.6c-3-0.1-6-0.5-9-0.8c-2.9-0.3-5.9-0.5-8.8-1.1
		C1336,1828.2,1332.3,1827.3,1328.6,1826.4z M1379.9,1751.8c5-12.2,10-24.4,15-36.6c-0.4-0.2-0.8-0.3-1.2-0.5
		C1387.6,1726.5,1382.1,1738.5,1379.9,1751.8z"/>
	<text transform="matrix(0.9985 0 0 1 1716.2476 1938.8759)" class="st7 st4 st6">We are.</text>
</g>
</svg>
